<?xml version="1.0" encoding="UTF-8" standalone="no"?>
<!-- Generated by IcoMoon.io -->

<svg
   xmlns:dc="http://purl.org/dc/elements/1.1/"
   xmlns:cc="http://creativecommons.org/ns#"
   xmlns:rdf="http://www.w3.org/1999/02/22-rdf-syntax-ns#"
   xmlns:svg="http://www.w3.org/2000/svg"
   xmlns="http://www.w3.org/2000/svg"
   xmlns:sodipodi="http://sodipodi.sourceforge.net/DTD/sodipodi-0.dtd"
   xmlns:inkscape="http://www.inkscape.org/namespaces/inkscape"
   version="1.1"
   width="1168"
   height="1024"
   viewBox="0 0 1168 1024"
   id="svg833"
   sodipodi:docname="Bombs.svg"
   inkscape:version="0.92.5 (2060ec1f9f, 2020-04-08)">
  <metadata
     id="metadata839">
    <rdf:RDF>
      <cc:Work
         rdf:about="">
        <dc:format>image/svg+xml</dc:format>
        <dc:type
           rdf:resource="http://purl.org/dc/dcmitype/StillImage" />
        <dc:title></dc:title>
      </cc:Work>
    </rdf:RDF>
  </metadata>
  <defs
     id="defs837" />
  <sodipodi:namedview
     pagecolor="#ffffff"
     bordercolor="#666666"
     borderopacity="1"
     objecttolerance="10"
     gridtolerance="10"
     guidetolerance="10"
     inkscape:pageopacity="0"
     inkscape:pageshadow="2"
     inkscape:window-width="1366"
     inkscape:window-height="705"
     id="namedview835"
     showgrid="false"
     inkscape:pagecheckerboard="true"
     inkscape:zoom="0.5234375"
     inkscape:cx="584"
     inkscape:cy="512"
     inkscape:window-x="-8"
     inkscape:window-y="-8"
     inkscape:window-maximized="1"
     inkscape:current-layer="svg833" />
  <g
     id="icomoon-ignore" />
  <path
     fill="#000"
     d="M1063.296 253.696l105.088 14.848-93.44 49.472 67.744 61.888-98.080-12.384 60.704 126.24-121.44-91.584-100.448 121.28 46.72-150.944-147.168 79.2 102.752-111.36-7.040-27.392c-27.744 13.824-67.040 27.936-108.128 26.304-54.496 0-122.176-38.016-203.040-105.984 0 0-91.552-96.832-168.512-96.832-79.168 0-71.424 119.104-71.328 120.288h89.664v81.024c113.984 43.904 191.008 154.176 191.008 283.68 0 168-136.192 304.192-304.192 304.192s-304.16-136.256-304.16-304.256c0-129.472 79.008-239.776 192.992-283.68v-81.024h80.128c-0.096-0.608-9.216-87.808 36.8-136.192 24.544-25.792 54.528-38.688 90.016-38.688 106.784 0 202.624 112.384 202.624 112.384 70.24 60.288 127.52 90.4 171.84 90.4 17.984 0 54.592-11.328 73.408-17.568l-57.824-45.504 100.448 7.392-77.056-118.784 126.112 89.088 14.016-84.16 23.328 76.736 93.44-111.36-21.024 123.744 107.424-24.736-93.376 74.272z"
     id="path831"
     style="fill:#fffff3;fill-opacity:1" />
</svg>
