<?xml version="1.0" encoding="UTF-8" standalone="no"?>
<!-- Generated by IcoMoon.io -->

<svg
   xmlns:dc="http://purl.org/dc/elements/1.1/"
   xmlns:cc="http://creativecommons.org/ns#"
   xmlns:rdf="http://www.w3.org/1999/02/22-rdf-syntax-ns#"
   xmlns:svg="http://www.w3.org/2000/svg"
   xmlns="http://www.w3.org/2000/svg"
   xmlns:sodipodi="http://sodipodi.sourceforge.net/DTD/sodipodi-0.dtd"
   xmlns:inkscape="http://www.inkscape.org/namespaces/inkscape"
   version="1.1"
   width="1024"
   height="1024"
   viewBox="0 0 1024 1024"
   id="svg1440"
   sodipodi:docname="Three.svg"
   inkscape:version="0.92.5 (2060ec1f9f, 2020-04-08)">
  <metadata
     id="metadata1446">
    <rdf:RDF>
      <cc:Work
         rdf:about="">
        <dc:format>image/svg+xml</dc:format>
        <dc:type
           rdf:resource="http://purl.org/dc/dcmitype/StillImage" />
        <dc:title>number3</dc:title>
      </cc:Work>
    </rdf:RDF>
  </metadata>
  <defs
     id="defs1444" />
  <sodipodi:namedview
     pagecolor="#ffffff"
     bordercolor="#666666"
     borderopacity="1"
     objecttolerance="10"
     gridtolerance="10"
     guidetolerance="10"
     inkscape:pageopacity="0"
     inkscape:pageshadow="2"
     inkscape:window-width="1366"
     inkscape:window-height="705"
     id="namedview1442"
     showgrid="false"
     inkscape:pagecheckerboard="true"
     inkscape:zoom="0.23046875"
     inkscape:cx="512"
     inkscape:cy="512"
     inkscape:window-x="-8"
     inkscape:window-y="-8"
     inkscape:window-maximized="1"
     inkscape:current-layer="svg1440" />
  <title
     id="title1433">number3</title>
  <g
     id="icomoon-ignore" />
  <path
     fill="#000"
     d="M512 96c-229.76 0-416 186.24-416 416s186.24 416 416 416 416-186.24 416-416-186.24-416-416-416zM607.84 683.424c-26.432 25.504-59.328 38.208-98.752 38.208-37.312 0-68.256-10.72-92.8-32.16-24.608-21.44-38.848-49.44-42.784-84.064l76.512-9.248c2.432 19.424 8.992 34.272 19.712 44.576 10.656 10.272 23.616 15.424 38.816 15.424 16.32 0 30.048-6.208 41.248-18.624 11.136-12.384 16.704-29.088 16.704-50.112 0-19.872-5.344-35.68-16.032-47.328-10.72-11.648-23.744-17.44-39.136-17.44-10.144 0-22.24 1.984-36.352 5.888l8.704-63.904c21.376 0.576 37.696-4.064 48.928-13.888s16.832-22.88 16.832-39.168c0-13.856-4.096-24.864-12.32-33.12-8.256-8.224-19.168-12.352-32.8-12.352-13.472 0-24.928 4.672-34.464 14.016-9.536 9.376-15.328 23.040-17.408 40.992l-72.992-12.352c5.056-25.024 12.704-45.024 22.944-60s24.48-26.72 42.752-35.296 38.784-12.832 61.472-12.832c38.816 0 69.952 12.384 93.376 37.152 19.328 20.256 28.96 43.136 28.96 68.64 0 36.192-19.808 65.088-59.456 86.656 23.648 5.056 42.56 16.416 56.704 34.016 14.176 17.632 21.248 38.88 21.248 63.808 0.032 36.224-13.184 67.040-39.616 92.512z"
     id="path1438"
     style="fill:#fffffd;fill-opacity:1" />
</svg>
