<?xml version="1.0" encoding="UTF-8" standalone="no"?>
<!-- Generated by IcoMoon.io -->

<svg
   xmlns:dc="http://purl.org/dc/elements/1.1/"
   xmlns:cc="http://creativecommons.org/ns#"
   xmlns:rdf="http://www.w3.org/1999/02/22-rdf-syntax-ns#"
   xmlns:svg="http://www.w3.org/2000/svg"
   xmlns="http://www.w3.org/2000/svg"
   xmlns:sodipodi="http://sodipodi.sourceforge.net/DTD/sodipodi-0.dtd"
   xmlns:inkscape="http://www.inkscape.org/namespaces/inkscape"
   version="1.1"
   width="1024"
   height="1024"
   viewBox="0 0 1024 1024"
   id="svg62"
   sodipodi:docname="Two.svg"
   inkscape:version="0.92.5 (2060ec1f9f, 2020-04-08)">
  <metadata
     id="metadata68">
    <rdf:RDF>
      <cc:Work
         rdf:about="">
        <dc:format>image/svg+xml</dc:format>
        <dc:type
           rdf:resource="http://purl.org/dc/dcmitype/StillImage" />
        <dc:title>number3</dc:title>
      </cc:Work>
    </rdf:RDF>
  </metadata>
  <defs
     id="defs66" />
  <sodipodi:namedview
     pagecolor="#ffffff"
     bordercolor="#666666"
     borderopacity="1"
     objecttolerance="10"
     gridtolerance="10"
     guidetolerance="10"
     inkscape:pageopacity="0"
     inkscape:pageshadow="2"
     inkscape:window-width="1366"
     inkscape:window-height="705"
     id="namedview64"
     showgrid="false"
     inkscape:pagecheckerboard="true"
     inkscape:zoom="0.23046875"
     inkscape:cx="117.51193"
     inkscape:cy="516.46872"
     inkscape:window-x="-8"
     inkscape:window-y="-8"
     inkscape:window-maximized="1"
     inkscape:current-layer="svg62" />
  <title
     id="title55">number3</title>
  <g
     id="icomoon-ignore" />
  <path
     fill="#000"
     d="M512 96c-229.76 0-416 186.24-416 416s186.24 416 416 416 416-186.24 416-416-186.24-416-416-416zM650.944 653.632v73.504h-276.992c2.976-27.744 11.968-54.016 26.976-78.88 14.976-24.832 44.576-57.824 88.768-98.88 35.552-33.184 57.376-55.68 65.44-67.488 10.88-16.32 16.32-32.448 16.32-48.384 0-17.632-4.704-31.2-14.112-40.672s-22.4-14.208-39.008-14.208c-16.384 0-29.44 4.992-39.136 14.944s-15.296 26.464-16.736 49.568l-79.008-7.904c4.672-43.488 19.36-74.72 44.096-93.696 24.704-18.944 55.648-28.416 92.736-28.416 40.64 0 72.576 10.976 95.808 32.896 23.232 21.952 34.848 49.216 34.848 81.824 0 18.56-3.328 36.224-9.984 52.992s-17.184 34.368-31.616 52.704c-9.568 12.16-26.848 29.728-51.872 52.608-24.992 22.848-40.832 38.016-47.488 45.504-6.656 7.52-12.032 14.816-16.16 21.952h157.12z"
     id="path60"
     style="fill:#ffffff;fill-opacity:1" />
</svg>
